<svg xmlns="http://www.w3.org/2000/svg" width="98" height="98" viewBox="0 0 98 98"><g transform="translate(-584 -993)"><circle cx="49" cy="49" r="49" transform="translate(584 993)" fill="#0078b9"/><g transform="translate(-2248.134 1099.917)"><path d="M2881.2,115.531q-7.766,0-15.531,0c-1.2,0-1.619-.418-1.644-1.634a14.276,14.276,0,0,1,.006-1.489c.039-.466-.151-.563-.575-.56-2.393.018-4.787.014-7.18.013q-5.318,0-10.637-.011a1.332,1.332,0,0,1-1.474-1.487c0-2.642-.065-5.286.018-7.925a16.866,16.866,0,0,1,8.838-14.794,1.378,1.378,0,0,1,1.669.182,10.771,10.771,0,0,0,4.522,2.009,10.886,10.886,0,0,0,8.678-1.87,1.809,1.809,0,0,1,2.317-.086,16.967,16.967,0,0,1,3.578,2.907,8.957,8.957,0,0,0,4.626,2.664,10.806,10.806,0,0,0,7.944-.906,7.642,7.642,0,0,0,2.158-1.614,16.977,16.977,0,0,1,4.011-3.209,1.473,1.473,0,0,1,1.815.094,10.553,10.553,0,0,0,4.672,2.058,11.143,11.143,0,0,0,8.413-1.756c.147-.1.3-.2.433-.308a1.409,1.409,0,0,1,1.763-.1,17.048,17.048,0,0,1,6.655,6.915,16.544,16.544,0,0,1,1.947,7.7c.018,2.659.011,5.319.01,7.978a1.348,1.348,0,0,1-1.53,1.54q-8.7.01-17.392.005c-.97,0-.969-.013-.969.949,0,.425,0,.851-.011,1.276a1.3,1.3,0,0,1-1.493,1.449Q2889.014,115.532,2881.2,115.531Zm0-2.567v0c2.926,0,5.852-.007,8.776.008.4,0,.52-.109.513-.509-.024-1.418-.014-2.837-.014-4.255,0-.691-.017-1.384.017-2.074a1.281,1.281,0,0,1,1.933-1.121,1.328,1.328,0,0,1,.627,1.264c-.009,2.057,0,4.113-.009,6.17,0,.38.086.549.5.525a15.035,15.035,0,0,1,1.754,0c.439.026.527-.153.538-.552.035-1.188-.1-2.369-.1-3.557a21.93,21.93,0,0,0-.481-6.322,14.739,14.739,0,0,0-5.968-8.311.57.57,0,0,0-.716,0,12.772,12.772,0,0,1-1.577.875,13.6,13.6,0,0,1-13.07-.813.684.684,0,0,0-.856,0,14.513,14.513,0,0,0-5.278,6.435,15.346,15.346,0,0,0-1.128,6.526c.038,1.734-.029,3.471-.068,5.207-.009.39.113.539.516.516a11.7,11.7,0,0,1,1.594.006c.5.04.675-.1.667-.634-.031-2.021-.008-4.042-.017-6.063a1.3,1.3,0,0,1,.679-1.285,1.28,1.28,0,0,1,1.889,1.244c.013,2.057.017,4.114,0,6.17,0,.437.106.569.557.565C2875.384,112.954,2878.292,112.965,2881.2,112.965Zm-23.179-3.734v-.006c1.808,0,3.617-.008,5.425.007.383,0,.548-.1.523-.507-.032-.548-.006-1.1-.014-1.648a17.805,17.805,0,0,1,1.5-7.674,17.026,17.026,0,0,1,5.585-6.891c.357-.26.437-.425.053-.739-.522-.427-1.054-.837-1.592-1.242a.657.657,0,0,0-.853-.016,13.555,13.555,0,0,1-14.649,0,.644.644,0,0,0-.808,0,14.225,14.225,0,0,0-6.3,10.1c-.385,2.748-.092,5.524-.169,8.287-.008.275.1.379.371.375.6-.008,1.207-.022,1.808.013.44.026.578-.12.574-.566-.02-2,0-4.007-.008-6.01a1.572,1.572,0,0,1,.393-1.226,1.282,1.282,0,0,1,1.383-.283,1.3,1.3,0,0,1,.806,1.368c0,2.021.015,4.042-.006,6.063,0,.465.133.613.6.607C2854.438,109.215,2856.229,109.23,2858.02,109.23Zm46.325-.005v.006c1.808,0,3.616-.01,5.423.007.412,0,.568-.122.557-.545-.023-.9,0-1.808,0-2.712,0-1.152-.011-2.3,0-3.456a1.264,1.264,0,0,1,1.427-1.393c.73.061,1.15.615,1.151,1.517,0,2.038.01,4.076,0,6.114,0,.385.1.543.511.522.6-.031,1.206-.03,1.807,0,.359.015.45-.119.448-.459-.014-2.18.056-4.362-.025-6.54a14.427,14.427,0,0,0-6.272-11.676.817.817,0,0,0-1.076-.024,13.545,13.545,0,0,1-8.377,2,13.322,13.322,0,0,1-6.224-2.1.544.544,0,0,0-.714-.005c-.6.439-1.194.884-1.751,1.381-.253.226-.254.352.028.555a17.525,17.525,0,0,1,3.572,3.465,16.969,16.969,0,0,1,3.49,8.473,32.471,32.471,0,0,1,.1,4.247c0,.471.1.647.611.638C2900.8,109.206,2902.573,109.225,2904.345,109.225Z" transform="translate(0 -150.443)" fill="#fff"/><path d="M2918.677-71.648a9.266,9.266,0,0,1,9.366-9.269,9.221,9.221,0,0,1,9.149,9.262,9.212,9.212,0,0,1-9.548,9.249A9.215,9.215,0,0,1,2918.677-71.648Zm9.175-6.687a6.645,6.645,0,0,0-6.591,6.614,6.7,6.7,0,0,0,6.526,6.754,6.693,6.693,0,0,0,6.831-6.669A6.744,6.744,0,0,0,2927.853-78.335Z" transform="translate(-66.612)" fill="#fff"/><path d="M3301.485-80.84a9.21,9.21,0,0,1,9.239,9.434,9.193,9.193,0,0,1-9.246,9.072,9.248,9.248,0,0,1-9.271-9.481A9.248,9.248,0,0,1,3301.485-80.84Zm-6.7,9.28a6.706,6.706,0,0,0,6.839,6.67,6.737,6.737,0,0,0,6.526-6.719,6.734,6.734,0,0,0-7.13-6.654A6.694,6.694,0,0,0,3294.789-71.561Z" transform="translate(-400.395 -0.068)" fill="#fff"/><path d="M3105.378-36.74a9.288,9.288,0,0,1,9.253-9.292,9.286,9.286,0,0,1,9.273,9.272,9.287,9.287,0,0,1-9.282,9.262A9.275,9.275,0,0,1,3105.378-36.74Zm9.264,6.658a6.687,6.687,0,0,0,6.69-6.7,6.707,6.707,0,0,0-6.668-6.674,6.71,6.71,0,0,0-6.716,6.678A6.682,6.682,0,0,0,3114.642-30.082Z" transform="translate(-233.447 -31.173)" fill="#fff"/></g></g></svg>