<svg xmlns="http://www.w3.org/2000/svg" xmlns:xlink="http://www.w3.org/1999/xlink" width="47.504" height="45.808" viewBox="0 0 47.504 45.808"><defs><clipPath id="cart"><path d="M29.751,48.413a1.7,1.7,0,1,0-1.7-1.7A1.7,1.7,0,0,0,29.751,48.413Zm15.269,0a1.7,1.7,0,1,0-1.7-1.7A1.7,1.7,0,0,0,45.02,48.413Zm0,3.393a5.09,5.09,0,1,1,5.09-5.09A5.089,5.089,0,0,1,45.02,51.807Zm-15.269,0a5.09,5.09,0,1,1,5.09-5.09A5.089,5.089,0,0,1,29.751,51.807ZM16.9,16.179l5.591,20.129,27.615-4.6V16.179Zm-.939-3.38a1.687,1.687,0,0,1,.215-.014H51.807a1.7,1.7,0,0,1,1.7,1.7V33.144a1.7,1.7,0,0,1-1.418,1.673L21.547,39.905a1.7,1.7,0,0,1-1.914-1.219l-8-28.816L8.233,11A1.7,1.7,0,1,1,7.16,7.783l5.09-1.7a1.7,1.7,0,0,1,2.172,1.155Z" transform="translate(-5.999 -5.999)" clip-rule="evenodd"/></clipPath></defs><g clip-path="url(#cart)"><rect width="63.99" height="61.324" transform="translate(-7.999 -7.999)"/></g></svg>
