<svg xmlns="http://www.w3.org/2000/svg" width="101.728" height="24" viewBox="0 0 101.728 24"><g transform="translate(-802.714 -46.3)"><path d="M76.178,24H25.559v-.017C11.5,23.99,0,24,0,24L6.469,0h69.71V.021C90.234.013,101.728,0,101.728,0L95.259,24H76.178Z" transform="translate(802.714 46.3)" fill="#007dbc"/><path d="M21.995,12.25,21.343,16h-2.1L21.087,5.336l3.42.007a2.822,2.822,0,0,1,2.194,1,3.28,3.28,0,0,1,.67,2.465,3.711,3.711,0,0,1-1.187,2.509,3.8,3.8,0,0,1-2.651.941Zm.308-1.794,1.355.015a1.456,1.456,0,0,0,1.216-.6,2.528,2.528,0,0,0,.41-1.586,1.373,1.373,0,0,0-.242-.806.826.826,0,0,0-.63-.33L22.881,7.13Zm9.669,3.362H29.137L28.207,16H25.921L31,5.336h1.926L34.33,16H32.154Zm-2.065-1.794h1.919l-.3-3.779Zm9.683.081H38.52L37.846,16h-2.1L37.59,5.336l3.223.007A2.945,2.945,0,0,1,43,6.222,2.884,2.884,0,0,1,43.647,8.5a3.429,3.429,0,0,1-1.992,3.047l1.069,4.336V16H40.468Zm-.762-1.794,1.106.015a1.455,1.455,0,0,0,1.2-.6,2.521,2.521,0,0,0,.432-1.564q-.029-.959-.842-1.018l-1.34-.007Zm12.95,2.131A4.263,4.263,0,0,1,50.5,15.183a3.7,3.7,0,0,1-2.736.963,2.815,2.815,0,0,1-2.2-.937,3.929,3.929,0,0,1-.82-2.52,7.029,7.029,0,0,1,.059-1.106l.271-1.765a6.25,6.25,0,0,1,1.49-3.464,3.657,3.657,0,0,1,2.845-1.165,2.859,2.859,0,0,1,2.285.985,4.278,4.278,0,0,1,.8,2.794l-2.117-.007.015-.725q-.022-1.23-1.15-1.267a1.567,1.567,0,0,0-1.377.634,4.485,4.485,0,0,0-.681,2.15l-.264,1.838q-.1.879-.11,1.15-.073,1.582,1.113,1.633a1.5,1.5,0,0,0,1.179-.392,2.734,2.734,0,0,0,.615-1.527Zm7.3-1.055H55.828l-.491,2.827H59.19L58.875,16H52.928L54.774,5.336h5.94L60.4,7.13H56.568l-.439,2.52h3.259ZM62.677,16h-2.1L62.428,5.336h2.1Zm6.014-3.9H67.622L66.948,16h-2.1L66.692,5.336l3.223.007a2.945,2.945,0,0,1,2.19.879A2.884,2.884,0,0,1,72.749,8.5a3.429,3.429,0,0,1-1.992,3.047l1.069,4.336V16H69.57Zm-.762-1.794,1.106.015a1.455,1.455,0,0,0,1.2-.6,2.521,2.521,0,0,0,.432-1.564q-.029-.959-.842-1.018l-1.34-.007ZM77,16.146a2.975,2.975,0,0,1-2.23-.923,3.8,3.8,0,0,1-.9-2.483,6.1,6.1,0,0,1,.044-1.113l.271-1.772a7.328,7.328,0,0,1,.828-2.52A4.21,4.21,0,0,1,76.544,5.7a3.868,3.868,0,0,1,2.065-.513,2.869,2.869,0,0,1,2.23.97,4.052,4.052,0,0,1,.868,2.574A6.894,6.894,0,0,1,81.641,9.9L81.4,11.532a6.207,6.207,0,0,1-1.483,3.424A3.721,3.721,0,0,1,77,16.146Zm2.542-6.321a10.807,10.807,0,0,0,.088-1.165q-.037-1.633-1.179-1.677a1.61,1.61,0,0,0-1.417.663A4.732,4.732,0,0,0,76.28,9.84l-.256,1.794a6.944,6.944,0,0,0-.066,1.135q.037,1.538,1.208,1.589a1.62,1.62,0,0,0,1.37-.615,4.314,4.314,0,0,0,.747-2.109Z" transform="translate(802.714 48.3)" fill="#fff"/></g></svg>