<svg xmlns="http://www.w3.org/2000/svg" xmlns:xlink="http://www.w3.org/1999/xlink" width="16.57" height="21.087" viewBox="0 0 16.57 21.087"><defs><clipPath id="a"><path d="M26.283,14.284A3.39,3.39,0,1,0,22.97,10.9,3.356,3.356,0,0,0,26.283,14.284Zm0,1.506a4.9,4.9,0,1,1,4.971-4.9A4.933,4.933,0,0,1,26.283,15.79Zm-6.43,9.625,12.865-1.949L31.436,18.8H21.176Zm-.89,1.662a.792.792,0,0,1-.951-.878l1.657-8.284a.811.811,0,0,1,.815-.618h11.6a.817.817,0,0,1,.8.57l1.657,6.025a.758.758,0,0,1-.667.926Z" transform="translate(-17.998 -6)" fill="#fff" clip-rule="evenodd"/></clipPath></defs><g clip-path="url(#a)"><rect width="24.23" height="28.693" transform="translate(-3.826 -3.825)" fill="#fff"/></g></svg>
